HIERARCHY
ROOT hip
{
  OFFSET 0 0 0
  CHANNELS 6 Xposition Yposition Zposition Zrotation Yrotation Xrotation
  JOINT abdomen
  {
    OFFSET 0 20.6881 -0.73152
    CHANNELS 3 Zrotation Xrotation Yrotation
    JOINT chest
    {
      OFFSET 0 11.7043 -0.48768
      CHANNELS 3 Zrotation Xrotation Yrotation
      JOINT neck
      {
        OFFSET 0 22.1894 -2.19456
        CHANNELS 3 Zrotation Xrotation Yrotation
        JOINT head
        {
          OFFSET -0.24384 7.07133 1.2192
          CHANNELS 3 Zrotation Xrotation Yrotation
          JOINT leftEye
          {
            OFFSET 4.14528 8.04674 8.04672
            CHANNELS 3 Zrotation Xrotation Yrotation
            End Site
            {
              OFFSET 1 0 0
            }
          }
          JOINT rightEye
          {
            OFFSET -3.6576 8.04674 8.04672
            CHANNELS 3 Zrotation Xrotation Yrotation
            End Site
            {
              OFFSET 1 0 0
            }
          }
        }
      }
      JOINT rCollar
      {
        OFFSET -2.68224 19.2634 -4.8768
        CHANNELS 3 Zrotation Xrotation Yrotation
        JOINT rShldr
        {
          OFFSET -8.77824 -1.95073 1.46304
          CHANNELS 3 Zrotation Xrotation Yrotation
          JOINT rForeArm
          {
            OFFSET -28.1742 -1.7115 0.48768
            CHANNELS 3 Zrotation Xrotation Yrotation
            JOINT rHand
            {
              OFFSET -22.5879 0.773209 7.07136
              CHANNELS 3 Zrotation Xrotation Yrotation
              JOINT rThumb1
              {
                OFFSET -1.2192 -0.487915 3.41376
                CHANNELS 3 Zrotation Xrotation Yrotation
                JOINT rThumb2
                {
                  OFFSET -3.37035 -0.52449 3.41376
                  CHANNELS 3 Zrotation Xrotation Yrotation
                  End Site
                  {
                    OFFSET -1.78271 -1.18214 1.43049
                  }
                }
              }
              JOINT rIndex1
              {
                OFFSET -7.75947 0.938293 5.60832
                CHANNELS 3 Zrotation Xrotation Yrotation
                JOINT rIndex2
                {
                  OFFSET -2.54057 -0.884171 1.56538
                  CHANNELS 3 Zrotation Xrotation Yrotation
                  End Site
                  {
                    OFFSET -1.62519 -0.234802 1.16502
                  }
                }
              }
              JOINT rMid1
              {
                OFFSET -8.24714 1.18213 3.41376
                CHANNELS 3 Zrotation Xrotation Yrotation
                JOINT rMid2
                {
                  OFFSET -3.10165 -0.590103 1.0647
                  CHANNELS 3 Zrotation Xrotation Yrotation
                  End Site
                  {
                    OFFSET -2.48547 -0.328903 0.83742
                  }
                }
              }
              JOINT rRing1
              {
                OFFSET -8.82822 0.546677 1.51678
                CHANNELS 3 Zrotation Xrotation Yrotation
                JOINT rRing2
                {
                  OFFSET -2.60934 -0.819778 -0.0198488
                  CHANNELS 3 Zrotation Xrotation Yrotation
                  End Site
                  {
                    OFFSET -2.33842 -0.294052 0.168128
                  }
                }
              }
              JOINT rPinky1
              {
                OFFSET -8.27202 -0.0477905 -0.4584
                CHANNELS 3 Zrotation Xrotation Yrotation
                JOINT rPinky2
                {
                  OFFSET -1.82734 -0.647385 -0.700984
                  CHANNELS 3 Zrotation Xrotation Yrotation
                  End Site
                  {
                    OFFSET -1.69225 -0.51767 -0.607171
                  }
                }
              }
            }
          }
        }
      }
      JOINT lCollar
      {
        OFFSET 2.68224 19.2634 -4.8768
        CHANNELS 3 Zrotation Xrotation Yrotation
        JOINT lShldr
        {
          OFFSET 8.77824 -1.95073 1.46304
          CHANNELS 3 Zrotation Xrotation Yrotation
          JOINT lForeArm
          {
            OFFSET 28.1742 -1.7115 0.48768
            CHANNELS 3 Zrotation Xrotation Yrotation
            JOINT lHand
            {
              OFFSET 22.5879 0.773209 7.07136
              CHANNELS 3 Zrotation Xrotation Yrotation
              JOINT lThumb1
              {
                OFFSET 1.2192 -0.487915 3.41376
                CHANNELS 3 Zrotation Xrotation Yrotation
                JOINT lThumb2
                {
                  OFFSET 3.37035 -0.52449 3.41376
                  CHANNELS 3 Zrotation Xrotation Yrotation
                  End Site
                  {
                    OFFSET 1.78271 -1.18214 1.43049
                  }
                }
              }
              JOINT lIndex1
              {
                OFFSET 7.75947 0.938293 5.60832
                CHANNELS 3 Zrotation Xrotation Yrotation
                JOINT lIndex2
                {
                  OFFSET 2.54057 -0.884171 1.56538
                  CHANNELS 3 Zrotation Xrotation Yrotation
                  End Site
                  {
                    OFFSET 1.62519 -0.234802 1.16502
                  }
                }
              }
              JOINT lMid1
              {
                OFFSET 8.24714 1.18213 3.41376
                CHANNELS 3 Zrotation Xrotation Yrotation
                JOINT lMid2
                {
                  OFFSET 3.10165 -0.590103 1.0647
                  CHANNELS 3 Zrotation Xrotation Yrotation
                  End Site
                  {
                    OFFSET 2.48547 -0.328903 0.83742
                  }
                }
              }
              JOINT lRing1
              {
                OFFSET 8.82822 0.546677 1.51678
                CHANNELS 3 Zrotation Xrotation Yrotation
                JOINT lRing2
                {
                  OFFSET 2.60934 -0.819778 -0.0198488
                  CHANNELS 3 Zrotation Xrotation Yrotation
                  End Site
                  {
                    OFFSET 2.33842 -0.294052 0.168128
                  }
                }
              }
              JOINT lPinky1
              {
                OFFSET 8.27202 -0.0477905 -0.4584
                CHANNELS 3 Zrotation Xrotation Yrotation
                JOINT lPinky2
                {
                  OFFSET 1.82734 -0.647385 -0.700984
                  CHANNELS 3 Zrotation Xrotation Yrotation
                  End Site
                  {
                    OFFSET 1.69225 -0.51767 -0.607171
                  }
                }
              }
            }
          }
        }
      }
    }
  }
  JOINT rButtock
  {
    OFFSET -8.77824 4.35084 1.2192
    CHANNELS 3 Zrotation Xrotation Yrotation
    JOINT rThigh
    {
      OFFSET 0 -1.70687 -2.19456
      CHANNELS 3 Zrotation Xrotation Yrotation
      JOINT rShin
      {
        OFFSET 0 -36.8199 0.73152
        CHANNELS 3 Zrotation Xrotation Yrotation
        JOINT rFoot
        {
          OFFSET 0.73152 -45.1104 -5.12064
          CHANNELS 3 Zrotation Xrotation Yrotation
          End Site
          {
            OFFSET -1.1221 -3.69964 12.103
          }
        }
      }
    }
  }
  JOINT lButtock
  {
    OFFSET 8.77824 4.35084 1.2192
    CHANNELS 3 Zrotation Xrotation Yrotation
    JOINT lThigh
    {
      OFFSET 0 -1.70687 -2.19456
      CHANNELS 3 Zrotation Xrotation Yrotation
      JOINT lShin
      {
        OFFSET 0 -36.8199 0.73152
        CHANNELS 3 Zrotation Xrotation Yrotation
        JOINT lFoot
        {
          OFFSET -0.73152 -45.1104 -5.12064
          CHANNELS 3 Zrotation Xrotation Yrotation
          End Site
          {
            OFFSET 1.1221 -3.69964 12.103
          }
        }
      }
    }
  }
}
MOTION
Frames:	6
Frame Time:	0.03333
-0.5762000102549791 60.74439883232117 2.339000068604946 4.737077713012695 21.586898803710938 -9.337916374206543 -12.127209663391113 19.738189697265625 -5.28261137008667 11.24470329284668 -5.854297637939453 -1.3122797012329102 -7.422137260437012 16.4070987701416 -7.793914794921875 10.41130256652832 -19.80220603942871 -13.398299217224121 -0.0 0.0 -0.0 -0.0 0.0 -0.0 -0.0 0.0 -0.0 71.88848876953125 22.980043411254883 -15.066136360168457 -21.994102478027344 -15.748485565185547 43.77360534667969 -0.1483251452445984 10.912909507751465 1.5526901483535767 -0.0 0.0 -0.0 -0.0 0.0 -0.0 -0.0 0.0 -0.0 7.730902194976807 5.47491455078125 0.4173222780227661 -0.0 0.0 -0.0 2.905566453933716 0.9650754332542419 0.10300818830728531 -0.0 0.0 -0.0 10.278596878051758 0.7318810820579529 0.026273518800735474 -0.0 0.0 -0.0 2.221662998199463 -0.7334509491920471 -0.20832103490829468 -0.0 0.0 -0.0 -55.392704010009766 42.249996185302734 -31.52130126953125 13.64619255065918 -6.6725993156433105 -24.844993591308594 0.6771513819694519 22.938819885253906 -3.406839609146118 -0.0 0.0 0.0 -0.0 0.0 0.0 -0.0 0.0 0.0 -7.730902194976807 5.47491455078125 -0.4173222780227661 -0.0 0.0 0.0 -2.905566453933716 0.9650754332542419 -0.10300818830728531 -0.0 0.0 0.0 -10.278596878051758 0.7318810820579529 -0.026273518800735474 -0.0 0.0 0.0 -2.221662998199463 -0.7334509491920471 0.20832103490829468 -0.0 0.0 -0.0 -34.93973159790039 -44.34577941894531 -16.991878509521484 -0.3886863887310028 42.97491455078125 0.8394538164138794 -3.9249587059020996 28.36307144165039 11.222764015197754 0.0 0.0 0.0 6.92101526260376 -1.8498798608779907 -1.4505215883255005 0.5857532620429993 57.683799743652344 -2.7021732330322266 16.666399002075195 -26.864696502685547 31.536800384521484
-1.1007000226527452 60.071200132369995 4.461999982595444 3.824070692062378 24.165496826171875 -9.279900550842285 -12.352897644042969 19.42880630493164 -4.861977577209473 10.968792915344238 -6.1631622314453125 -1.1983121633529663 -8.181340217590332 17.779207229614258 -8.651262283325195 11.877793312072754 -22.950695037841797 -14.695804595947266 -0.0 0.0 -0.0 -0.0 0.0 -0.0 -0.0 0.0 0.0 72.86050415039062 19.077402114868164 -17.105195999145508 -21.474605560302734 -14.980289459228516 42.420799255371094 -0.19039498269557953 12.337491035461426 1.761427879333496 -0.0 0.0 0.0 -0.0 0.0 0.0 -0.0 0.0 0.0 7.730902194976807 5.47491455078125 0.4173222780227661 -0.0 0.0 0.0 2.905566453933716 0.9650754332542419 0.10300818830728531 -0.0 0.0 0.0 10.278596878051758 0.7318810820579529 0.026273518800735474 -0.0 0.0 0.0 2.221662998199463 -0.7334509491920471 -0.20832103490829468 -0.0 0.0 0.0 -53.60359573364258 44.24169921875 -31.977807998657227 15.152188301086426 -7.938268661499023 -27.881391525268555 0.628010094165802 21.673877716064453 -3.205418109893799 -0.0 -0.0 -0.0 -0.0 -0.0 -0.0 -0.0 -0.0 -0.0 -7.730902194976807 5.47491455078125 -0.4173222780227661 -0.0 -0.0 -0.0 -2.905566453933716 0.9650754332542419 -0.10300818830728531 -0.0 -0.0 -0.0 -10.278596878051758 0.7318810820579529 -0.026273518800735474 -0.0 -0.0 -0.0 -2.221662998199463 -0.7334509491920471 0.20832103490829468 -0.0 0.0 -0.0 -35.841796875 -43.40400314331055 -20.512489318847656 -0.488485187292099 46.094993591308594 0.8760169744491577 -2.0519721508026123 22.06912612915039 8.5248441696167 0.0 0.0 0.0 8.803000450134277 -0.9624565839767456 -2.8848326206207275 0.530149519443512 57.207000732421875 -2.8132357597351074 16.79001235961914 -26.935598373413086 31.962207794189453
-1.4785000123083591 59.52640175819397 6.168000027537346 3.7523903846740723 24.7814998626709 -9.103398323059082 -13.114809036254883 19.337087631225586 -3.8217685222625732 10.215706825256348 -6.584578990936279 -0.961020290851593 -8.635807037353516 19.14650535583496 -9.284893035888672 13.002096176147461 -26.065698623657227 -15.654897689819336 -0.0 0.0 -0.0 -0.0 0.0 -0.0 -0.0 0.0 0.0 73.54309844970703 17.104494094848633 -18.111013412475586 -20.900089263916016 -14.187718391418457 40.912498474121094 -0.25314223766326904 13.783355712890625 1.9776191711425781 -0.0 0.0 0.0 -0.0 0.0 0.0 -0.0 0.0 0.0 7.730902194976807 5.47491455078125 0.4173222780227661 -0.0 0.0 0.0 2.905566453933716 0.9650754332542419 0.10300818830728531 -0.0 0.0 0.0 10.278596878051758 0.7318810820579529 0.026273518800735474 -0.0 0.0 0.0 2.221662998199463 -0.7334509491920471 -0.20832103490829468 -0.0 0.0 0.0 -52.71400833129883 45.669891357421875 -30.800996780395508 16.870193481445312 -9.52164077758789 -31.532304763793945 0.44343847036361694 18.58850860595703 -2.709129810333252 -0.0 -0.0 -0.0 -0.0 -0.0 -0.0 -0.0 -0.0 -0.0 -7.730902194976807 5.47491455078125 -0.4173222780227661 -0.0 -0.0 -0.0 -2.905566453933716 0.9650754332542419 -0.10300818830728531 -0.0 -0.0 -0.0 -10.278596878051758 0.7318810820579529 -0.026273518800735474 -0.0 -0.0 -0.0 -2.221662998199463 -0.7334509491920471 0.20832103490829468 -0.0 0.0 -0.0 -36.44660568237305 -43.64280319213867 -23.299396514892578 -0.6095046401023865 49.827903747558594 0.9454300403594971 -0.8146191835403442 15.322376251220703 6.381771087646484 0.0 0.0 0.0 10.002593040466309 0.2678835690021515 -3.306474208831787 0.46168753504753113 56.47028732299805 -2.9215338230133057 16.964406967163086 -26.807096481323242 32.62099838256836
-1.8466000212356448 58.98500084877014 7.655000034719706 4.930629253387451 24.091297149658203 -7.949106216430664 -14.71060848236084 18.799802780151367 -2.4312210083007812 9.293413162231445 -6.760209560394287 -0.676662266254425 -8.506817817687988 19.142900466918945 -9.595081329345703 12.802299499511719 -26.456899642944336 -16.28139305114746 -0.0 0.0 -0.0 -0.0 0.0 -0.0 -0.0 0.0 0.0 73.45789337158203 18.57170867919922 -17.360382080078125 -19.98210334777832 -13.007375717163086 38.57741165161133 -0.28731852769851685 15.080897331237793 2.1703040599823 -0.0 0.0 0.0 -0.0 0.0 0.0 -0.0 0.0 0.0 7.730902194976807 5.47491455078125 0.4173222780227661 -0.0 0.0 0.0 2.905566453933716 0.9650754332542419 0.10300818830728531 -0.0 0.0 0.0 10.278596878051758 0.7318810820579529 0.026273518800735474 -0.0 0.0 0.0 2.221662998199463 -0.7334509491920471 -0.20832103490829468 -0.0 0.0 0.0 -53.844905853271484 45.93830108642578 -27.400602340698242 18.670495986938477 -11.462285995483398 -35.42759704589844 0.13656558096408844 11.993922233581543 -1.7015877962112427 0.0 0.0 -0.0 0.0 0.0 -0.0 0.0 0.0 -0.0 -7.730902194976807 5.47491455078125 -0.4173222780227661 0.0 0.0 -0.0 -2.905566453933716 0.9650754332542419 -0.10300818830728531 0.0 0.0 -0.0 -10.278596878051758 0.7318810820579529 -0.026273518800735474 0.0 0.0 -0.0 -2.221662998199463 -0.7334509491920471 0.20832103490829468 -0.0 0.0 -0.0 -37.26068878173828 -45.4850959777832 -23.829387664794922 -0.7161098718643188 52.78409194946289 1.0760746002197266 -0.41668596863746643 11.53894329071045 5.972456932067871 0.0 0.0 0.0 9.860930442810059 1.6928379535675049 -2.2146763801574707 0.3914141058921814 55.27458572387695 -2.974623680114746 17.1460018157959 -26.088397979736328 33.68589401245117
-2.0453000208362937 58.4958016872406 8.835000079125166 6.119922637939453 22.75119400024414 -6.5982770919799805 -16.42189598083496 18.250600814819336 -1.0788071155548096 8.316020011901855 -6.8983073234558105 -0.4111885726451874 -8.156050682067871 18.767004013061523 -9.709303855895996 12.357202529907227 -26.00660514831543 -16.577295303344727 -0.0 0.0 -0.0 -0.0 0.0 -0.0 -0.0 0.0 -0.0 72.89552307128906 21.563308715820312 -15.786776542663574 -19.04080581665039 -11.851190567016602 36.39920425415039 -0.34173813462257385 16.063613891601562 2.3213915824890137 0.0 0.0 -0.0 0.0 0.0 -0.0 0.0 0.0 -0.0 7.730902194976807 5.47491455078125 0.4173222780227661 0.0 0.0 -0.0 2.905566453933716 0.9650754332542419 0.10300818830728531 0.0 0.0 -0.0 10.278596878051758 0.7318810820579529 0.026273518800735474 0.0 0.0 -0.0 2.221662998199463 -0.7334509491920471 -0.20832103490829468 -0.0 0.0 -0.0 -56.03740692138672 45.13859939575195 -23.133691787719727 20.08769989013672 -13.12241268157959 -38.893096923828125 0.0475483313202858 5.218576908111572 -0.7360814213752747 -0.0 0.0 -0.0 -0.0 0.0 -0.0 -0.0 0.0 -0.0 -7.730902194976807 5.47491455078125 -0.4173222780227661 -0.0 0.0 -0.0 -2.905566453933716 0.9650754332542419 -0.10300818830728531 -0.0 0.0 -0.0 -10.278596878051758 0.7318810820579529 -0.026273518800735474 -0.0 0.0 -0.0 -2.221662998199463 -0.7334509491920471 0.20832103490829468 -0.0 0.0 -0.0 -38.343109130859375 -47.99989318847656 -24.007402420043945 -0.8334736824035645 55.56049346923828 1.2385883331298828 -0.22731366753578186 9.11816120147705 6.165309906005859 0.0 0.0 0.0 9.120542526245117 3.0617804527282715 -0.5788218975067139 0.3249575197696686 53.94599533081055 -3.0047171115875244 17.2665958404541 -25.222204208374023 34.77849578857422
-2.3068000096827745 58.17059874534607 9.883000049740076 7.520313739776611 21.684391021728516 -5.1623382568359375 -17.696203231811523 18.010793685913086 -0.2908191978931427 7.470869064331055 -7.105438232421875 -0.278298556804657 -7.76874303817749 18.627399444580078 -9.722177505493164 12.39040470123291 -25.784297943115234 -16.58199691772461 -0.0 0.0 -0.0 -0.0 0.0 -0.0 -0.0 0.0 -0.0 71.99490356445312 24.780797958374023 -13.986906051635742 -18.4940128326416 -11.22108268737793 35.160099029541016 -0.34485185146331787 16.47319793701172 2.3819894790649414 -0.0 -0.0 -0.0 -0.0 -0.0 -0.0 -0.0 -0.0 -0.0 7.730902194976807 5.47491455078125 0.4173222780227661 -0.0 -0.0 -0.0 2.905566453933716 0.9650754332542419 0.10300818830728531 -0.0 -0.0 -0.0 10.278596878051758 0.7318810820579529 0.026273518800735474 -0.0 -0.0 -0.0 2.221662998199463 -0.7334509491920471 -0.20832103490829468 -0.0 0.0 -0.0 -58.74470520019531 43.26980209350586 -19.206396102905273 20.916898727416992 -14.19360065460205 -41.00339889526367 0.001971323974430561 1.260750412940979 -0.17916932702064514 -0.0 0.0 -0.0 -0.0 0.0 -0.0 -0.0 0.0 -0.0 -7.730902194976807 5.47491455078125 -0.4173222780227661 -0.0 0.0 -0.0 -2.905566453933716 0.9650754332542419 -0.10300818830728531 -0.0 0.0 -0.0 -10.278596878051758 0.7318810820579529 -0.026273518800735474 -0.0 0.0 -0.0 -2.221662998199463 -0.7334509491920471 0.20832103490829468 -0.0 0.0 -0.0 -40.330814361572266 -50.35598373413086 -25.56243324279785 -0.9806933403015137 58.48630905151367 1.41642427444458 -0.1346961408853531 7.701458930969238 6.419882774353027 0.0 0.0 0.0 8.359912872314453 4.021717071533203 0.8268627524375916 0.2739763557910919 52.83778762817383 -3.0313403606414795 17.304101943969727 -24.50830078125 35.63019943237305
